<?xml version="1.0" encoding="UTF-8" standalone="no"?>
<svg
   xmlns:dc="http://purl.org/dc/elements/1.1/"
   xmlns:cc="http://creativecommons.org/ns#"
   xmlns:rdf="http://www.w3.org/1999/02/22-rdf-syntax-ns#"
   xmlns:svg="http://www.w3.org/2000/svg"
   xmlns="http://www.w3.org/2000/svg"
   xmlns:sodipodi="http://sodipodi.sourceforge.net/DTD/sodipodi-0.dtd"
   xmlns:inkscape="http://www.inkscape.org/namespaces/inkscape"
   version="1.1"
   id="Capa_1"
   x="0px"
   y="0px"
   viewBox="0 0 512 512"
   style="enable-background:new 0 0 512 512;"
   xml:space="preserve"
   sodipodi:docname="calendar.svg"
   inkscape:version="1.0 (4035a4fb49, 2020-05-01)"><metadata
   id="metadata133"><rdf:RDF><cc:Work
       rdf:about=""><dc:format>image/svg+xml</dc:format><dc:type
         rdf:resource="http://purl.org/dc/dcmitype/StillImage" /></cc:Work></rdf:RDF></metadata><defs
   id="defs131" /><sodipodi:namedview
   inkscape:document-rotation="0"
   pagecolor="#ffffff"
   bordercolor="#666666"
   borderopacity="1"
   objecttolerance="10"
   gridtolerance="10"
   guidetolerance="10"
   inkscape:pageopacity="0"
   inkscape:pageshadow="2"
   inkscape:window-width="958"
   inkscape:window-height="1008"
   id="namedview129"
   showgrid="false"
   inkscape:zoom="0.83007812"
   inkscape:cx="282.42006"
   inkscape:cy="227.45674"
   inkscape:window-x="-7"
   inkscape:window-y="0"
   inkscape:window-maximized="0"
   inkscape:current-layer="g96" />
<g
   id="g96">
	<g
   transform="matrix(1,0,0,1.0631632,0,-21.707897)"
   id="g4">
		<path
   style="fill:#d8dce1"
   d="m 0,134 v 328 c 0,22.055 17.945,40 40,40 h 432 c 22.055,0 40,-17.945 40,-40 V 134 Z"
   id="path2" />
	</g>
	<g
   transform="matrix(1,0,0,1.0631632,0,-21.707897)"
   id="g8"
   style="fill:#1167b1;fill-opacity:1">
		<path
   style="fill:#1167b1;fill-opacity:1"
   d="M 472,22 H 40 C 17.945,22 0,39.945 0,62 v 72 H 512 V 62 C 512,39.945 494.054,22 472,22 Z M 64,102 C 50.745,102 40,91.255 40,78 40,64.745 50.745,54 64,54 c 13.255,0 24,10.745 24,24 0,13.255 -10.745,24 -24,24 z m 384,0 c -13.255,0 -24,-10.745 -24,-24 0,-13.255 10.745,-24 24,-24 13.255,0 24,10.745 24,24 0,13.255 -10.745,24 -24,24 z"
   id="path6" />
	</g>
	<g
   transform="matrix(1,0,0,1.0631632,0,-21.707897)"
   id="g70">
		<g
   id="g12"
   style="fill:#77c7ff;fill-opacity:1">
			<path
   style="fill:#77c7ff;fill-opacity:1"
   d="m 256,206 c -17.648,0 -32,14.352 -32,32 0,17.648 14.352,32 32,32 17.648,0 32,-14.352 32,-32 0,-17.648 -14.352,-32 -32,-32 z"
   id="path10" />
		</g>
		<g
   id="g16"
   style="fill:#2a9df4;fill-opacity:1">
			<path
   style="fill:#2a9df4;fill-opacity:1"
   d="m 176,206 c -17.648,0 -32,14.352 -32,32 0,17.648 14.352,32 32,32 17.648,0 32,-14.352 32,-32 0,-17.648 -14.352,-32 -32,-32 z"
   id="path14" />
		</g>
		<g
   id="g20">
			<path
   style="fill:#ffffff"
   d="m 96,206 c -17.648,0 -32,14.352 -32,32 0,17.648 14.352,32 32,32 17.648,0 32,-14.352 32,-32 0,-17.648 -14.352,-32 -32,-32 z"
   id="path18" />
		</g>
		<g
   id="g24">
			<path
   style="fill:#ffffff"
   d="m 336,206 c -17.648,0 -32,14.352 -32,32 0,17.648 14.352,32 32,32 17.648,0 32,-14.352 32,-32 0,-17.648 -14.352,-32 -32,-32 z"
   id="path22" />
		</g>
		<g
   id="g28">
			<path
   style="fill:#ffffff"
   d="m 416,270 c 17.648,0 32,-14.352 32,-32 0,-17.648 -14.352,-32 -32,-32 -17.648,0 -32,14.352 -32,32 0,17.648 14.351,32 32,32 z"
   id="path26" />
		</g>
		<g
   id="g32">
			<path
   style="fill:#ffffff"
   d="m 256,286 c -17.648,0 -32,14.352 -32,32 0,17.648 14.352,32 32,32 17.648,0 32,-14.352 32,-32 0,-17.648 -14.352,-32 -32,-32 z"
   id="path30" />
		</g>
		<g
   id="g36">
			<path
   style="fill:#ffffff"
   d="m 176,286 c -17.648,0 -32,14.352 -32,32 0,17.648 14.352,32 32,32 17.648,0 32,-14.352 32,-32 0,-17.648 -14.352,-32 -32,-32 z"
   id="path34" />
		</g>
		<g
   id="g40">
			<path
   style="fill:#ffffff"
   d="m 96,286 c -17.648,0 -32,14.352 -32,32 0,17.648 14.352,32 32,32 17.648,0 32,-14.352 32,-32 0,-17.648 -14.352,-32 -32,-32 z"
   id="path38" />
		</g>
		<g
   id="g44">
			<path
   style="fill:#ffffff"
   d="m 336,286 c -17.648,0 -32,14.352 -32,32 0,17.648 14.352,32 32,32 17.648,0 32,-14.352 32,-32 0,-17.648 -14.352,-32 -32,-32 z"
   id="path42" />
		</g>
		<g
   id="g48">
			<path
   style="fill:#ffffff"
   d="m 416,286 c -17.648,0 -32,14.352 -32,32 0,17.648 14.352,32 32,32 17.648,0 32,-14.352 32,-32 0,-17.648 -14.352,-32 -32,-32 z"
   id="path46" />
		</g>
		<g
   id="g52">
			<path
   style="fill:#ffffff"
   d="m 256,366 c -17.648,0 -32,14.352 -32,32 0,17.648 14.352,32 32,32 17.648,0 32,-14.352 32,-32 0,-17.649 -14.352,-32 -32,-32 z"
   id="path50" />
		</g>
		<g
   id="g56">
			<path
   style="fill:#ffffff"
   d="m 176,366 c -17.648,0 -32,14.352 -32,32 0,17.648 14.352,32 32,32 17.648,0 32,-14.352 32,-32 0,-17.649 -14.352,-32 -32,-32 z"
   id="path54" />
		</g>
		<g
   id="g60">
			<path
   style="fill:#ffffff"
   d="m 96,366 c -17.648,0 -32,14.352 -32,32 0,17.648 14.352,32 32,32 17.648,0 32,-14.352 32,-32 0,-17.649 -14.352,-32 -32,-32 z"
   id="path58" />
		</g>
		<g
   id="g64">
			<path
   style="fill:#ffffff"
   d="m 336,366 c -17.648,0 -32,14.352 -32,32 0,17.648 14.352,32 32,32 17.648,0 32,-14.352 32,-32 0,-17.649 -14.352,-32 -32,-32 z"
   id="path62" />
		</g>
		<g
   id="g68">
			<path
   style="fill:#ffffff"
   d="m 416,366 c -17.648,0 -32,14.352 -32,32 0,17.648 14.352,32 32,32 17.648,0 32,-14.352 32,-32 0,-17.649 -14.352,-32 -32,-32 z"
   id="path66" />
		</g>
	</g>
	<g
   transform="matrix(1,0,0,1.0631632,0,-21.707897)"
   id="g76">
		<g
   id="g74">
			<path
   style="fill:#5c546a"
   d="M 64,90 C 57.375,90 52,84.629 52,78 V 22 c 0,-6.629 5.375,-12 12,-12 6.625,0 12,5.371 12,12 v 56 c 0,6.629 -5.375,12 -12,12 z"
   id="path72" />
		</g>
	</g>
	<g
   transform="matrix(1,0,0,1.0631632,0,-21.707897)"
   id="g82">
		<g
   id="g80">
			<path
   style="fill:#5c546a"
   d="m 448,90 c -6.625,0 -12,-5.371 -12,-12 V 22 c 0,-6.629 5.375,-12 12,-12 6.625,0 12,5.371 12,12 v 56 c 0,6.629 -5.375,12 -12,12 z"
   id="path78" />
		</g>
	</g>
	<g
   transform="matrix(1,0,0,1.0631632,0,-21.707897)"
   id="g86"
   style="fill:#187bcd;fill-opacity:1">
		<circle
   style="fill:#187bcd;fill-opacity:1"
   cx="96"
   cy="238"
   r="32"
   id="circle84" />
	</g>
	<g
   transform="matrix(1,0,0,1.0631632,0,-21.707897)"
   id="g90"
   style="fill:none">
		<circle
   style="fill:none"
   cx="256"
   cy="398"
   r="32"
   id="circle88" />
	</g>
	<g
   transform="matrix(1,0,0,1.0631632,0,-21.707897)"
   id="g94"
   style="fill:none">
		<circle
   style="fill:none"
   cx="336"
   cy="318"
   r="32"
   id="circle92" />
	</g>
</g>
<g
   id="g98">
</g>
<g
   id="g100">
</g>
<g
   id="g102">
</g>
<g
   id="g104">
</g>
<g
   id="g106">
</g>
<g
   id="g108">
</g>
<g
   id="g110">
</g>
<g
   id="g112">
</g>
<g
   id="g114">
</g>
<g
   id="g116">
</g>
<g
   id="g118">
</g>
<g
   id="g120">
</g>
<g
   id="g122">
</g>
<g
   id="g124">
</g>
<g
   id="g126">
</g>
</svg>
