<?xml version="1.0" encoding="UTF-8" standalone="no"?>
<svg
   xmlns:dc="http://purl.org/dc/elements/1.1/"
   xmlns:cc="http://creativecommons.org/ns#"
   xmlns:rdf="http://www.w3.org/1999/02/22-rdf-syntax-ns#"
   xmlns:svg="http://www.w3.org/2000/svg"
   xmlns="http://www.w3.org/2000/svg"
   xmlns:sodipodi="http://sodipodi.sourceforge.net/DTD/sodipodi-0.dtd"
   xmlns:inkscape="http://www.inkscape.org/namespaces/inkscape"
   inkscape:version="1.0 (4035a4fb49, 2020-05-01)"
   sodipodi:docname="cpu-svgrepo-com.svg"
   xml:space="preserve"
   style="enable-background:new 0 0 334.002 334.002;"
   viewBox="0 0 334.002 334.002"
   y="0px"
   x="0px"
   id="Layer_1"
   version="1.1"><metadata
   id="metadata115"><rdf:RDF><cc:Work
       rdf:about=""><dc:format>image/svg+xml</dc:format><dc:type
         rdf:resource="http://purl.org/dc/dcmitype/StillImage" /></cc:Work></rdf:RDF></metadata><defs
   id="defs113">
	
	
	
	
	
	
	
	
	
	
</defs><sodipodi:namedview
   inkscape:current-layer="Layer_1"
   inkscape:window-maximized="0"
   inkscape:window-y="0"
   inkscape:window-x="0"
   inkscape:cy="179.0902"
   inkscape:cx="18.654044"
   inkscape:zoom="1.2724474"
   showgrid="false"
   id="namedview111"
   inkscape:window-height="966"
   inkscape:window-width="1727"
   inkscape:pageshadow="2"
   inkscape:pageopacity="0"
   guidetolerance="10"
   gridtolerance="10"
   objecttolerance="10"
   borderopacity="1"
   bordercolor="#666666"
   pagecolor="#ffffff" />















<g
   id="g1029"><g
     id="g16">
		<path
   id="path2"
   d="m 176.102,59.459 c -2.764,0 -5.005,-2.241 -5.005,-5.005 V 15.017 c 0,-2.765 2.241,-5.006 5.005,-5.006 2.765,0 5.006,2.241 5.006,5.006 v 39.437 c -0.001,2.764 -2.242,5.005 -5.006,5.005 z"
   style="fill:#333e48" />
		<path
   id="path4"
   d="m 150.316,59.459 c -2.764,0 -5.006,-2.241 -5.006,-5.005 V 15.017 c 0,-2.765 2.242,-5.006 5.006,-5.006 2.764,0 5.005,2.241 5.005,5.006 v 39.437 c 0,2.764 -2.241,5.005 -5.005,5.005 z"
   style="fill:#333e48" />
		<path
   id="path6"
   d="m 124.531,59.459 c -2.765,0 -5.006,-2.241 -5.006,-5.005 V 15.017 c 0,-2.765 2.241,-5.006 5.006,-5.006 2.764,0 5.005,2.241 5.005,5.006 v 39.437 c 0,2.764 -2.241,5.005 -5.005,5.005 z"
   style="fill:#333e48" />
		<path
   id="path8"
   d="m 98.745,59.459 c -2.764,0 -5.005,-2.241 -5.005,-5.005 V 15.017 c 0,-2.765 2.241,-5.006 5.005,-5.006 2.765,0 5.006,2.241 5.006,5.006 v 39.437 c 0,2.764 -2.241,5.005 -5.006,5.005 z"
   style="fill:#333e48" />
		<path
   id="path10"
   d="m 201.888,59.459 c -2.765,0 -5.006,-2.241 -5.006,-5.005 V 15.017 c 0,-2.765 2.241,-5.006 5.006,-5.006 2.764,0 5.005,2.241 5.005,5.006 v 39.437 c 0,2.764 -2.242,5.005 -5.005,5.005 z"
   style="fill:#333e48" />
		<path
   id="path12"
   d="m 227.673,59.459 c -2.764,0 -5.006,-2.241 -5.006,-5.005 V 15.017 c 0,-2.765 2.242,-5.006 5.006,-5.006 2.764,0 5.006,2.241 5.006,5.006 v 39.437 c 0,2.764 -2.243,5.005 -5.006,5.005 z"
   style="fill:#333e48" />
		<path
   id="path14"
   d="m 253.458,59.459 c -2.764,0 -5.005,-2.241 -5.005,-5.005 V 15.017 c 0,-2.765 2.241,-5.006 5.005,-5.006 2.765,0 5.006,2.241 5.006,5.006 v 39.437 c 0,2.764 -2.241,5.005 -5.006,5.005 z"
   style="fill:#333e48" />
	</g><g
     id="g32">
		<path
   id="path18"
   d="m 176.102,323.991 c -2.764,0 -5.005,-2.241 -5.005,-5.006 v -39.438 c 0,-2.765 2.241,-5.005 5.005,-5.005 2.765,0 5.006,2.241 5.006,5.005 v 39.438 c -0.001,2.765 -2.242,5.006 -5.006,5.006 z"
   style="fill:#333e48" />
		<path
   id="path20"
   d="m 201.888,323.991 c -2.765,0 -5.006,-2.241 -5.006,-5.006 v -39.438 c 0,-2.765 2.241,-5.005 5.006,-5.005 2.764,0 5.005,2.241 5.005,5.005 v 39.438 c 0,2.765 -2.242,5.006 -5.005,5.006 z"
   style="fill:#333e48" />
		<path
   id="path22"
   d="m 227.673,323.991 c -2.764,0 -5.006,-2.241 -5.006,-5.006 v -39.438 c 0,-2.765 2.242,-5.005 5.006,-5.005 2.764,0 5.006,2.241 5.006,5.005 v 39.438 c 0,2.765 -2.243,5.006 -5.006,5.006 z"
   style="fill:#333e48" />
		<path
   id="path24"
   d="m 253.458,323.991 c -2.764,0 -5.005,-2.241 -5.005,-5.006 v -39.438 c 0,-2.765 2.241,-5.005 5.005,-5.005 2.765,0 5.006,2.241 5.006,5.005 v 39.438 c 0,2.765 -2.241,5.006 -5.006,5.006 z"
   style="fill:#333e48" />
		<path
   id="path26"
   d="m 150.316,323.991 c -2.764,0 -5.006,-2.241 -5.006,-5.006 v -39.438 c 0,-2.765 2.242,-5.005 5.006,-5.005 2.764,0 5.005,2.241 5.005,5.005 v 39.438 c 0,2.765 -2.241,5.006 -5.005,5.006 z"
   style="fill:#333e48" />
		<path
   id="path28"
   d="m 124.531,323.991 c -2.765,0 -5.006,-2.241 -5.006,-5.006 v -39.438 c 0,-2.765 2.241,-5.005 5.006,-5.005 2.764,0 5.005,2.241 5.005,5.005 v 39.438 c 0,2.765 -2.241,5.006 -5.005,5.006 z"
   style="fill:#333e48" />
		<path
   id="path30"
   d="m 98.745,323.991 c -2.764,0 -5.005,-2.241 -5.005,-5.006 v -39.438 c 0,-2.765 2.241,-5.005 5.005,-5.005 2.765,0 5.006,2.241 5.006,5.005 v 39.438 c 0,2.765 -2.241,5.006 -5.006,5.006 z"
   style="fill:#333e48" />
	</g><g
     id="g48">
		<path
   id="path34"
   d="m 328.996,172.006 h -39.438 c -2.764,0 -5.005,-2.241 -5.005,-5.005 0,-2.765 2.241,-5.005 5.005,-5.005 h 39.438 c 2.765,0 5.006,2.241 5.006,5.005 0,2.765 -2.241,5.005 -5.006,5.005 z"
   style="fill:#333e48" />
		<path
   id="path36"
   d="m 328.996,146.221 h -39.438 c -2.764,0 -5.005,-2.241 -5.005,-5.005 0,-2.764 2.241,-5.005 5.005,-5.005 h 39.438 c 2.765,0 5.006,2.241 5.006,5.005 0,2.764 -2.241,5.005 -5.006,5.005 z"
   style="fill:#333e48" />
		<path
   id="path38"
   d="m 328.996,120.436 h -39.438 c -2.764,0 -5.005,-2.241 -5.005,-5.006 0,-2.764 2.241,-5.005 5.005,-5.005 h 39.438 c 2.765,0 5.006,2.241 5.006,5.005 0,2.764 -2.241,5.006 -5.006,5.006 z"
   style="fill:#333e48" />
		<path
   id="path40"
   d="m 328.996,94.65 h -39.438 c -2.764,0 -5.005,-2.241 -5.005,-5.005 0,-2.765 2.241,-5.005 5.005,-5.005 h 39.438 c 2.765,0 5.006,2.241 5.006,5.005 0,2.764 -2.241,5.005 -5.006,5.005 z"
   style="fill:#333e48" />
		<path
   id="path42"
   d="m 328.996,197.792 h -39.438 c -2.764,0 -5.005,-2.241 -5.005,-5.005 0,-2.765 2.241,-5.005 5.005,-5.005 h 39.438 c 2.765,0 5.006,2.241 5.006,5.005 0,2.764 -2.241,5.005 -5.006,5.005 z"
   style="fill:#333e48" />
		<path
   id="path44"
   d="m 328.996,223.578 h -39.438 c -2.764,0 -5.005,-2.242 -5.005,-5.006 0,-2.765 2.241,-5.006 5.005,-5.006 h 39.438 c 2.765,0 5.006,2.241 5.006,5.006 0,2.764 -2.241,5.006 -5.006,5.006 z"
   style="fill:#333e48" />
		<path
   id="path46"
   d="m 328.996,249.363 h -39.438 c -2.764,0 -5.005,-2.241 -5.005,-5.005 0,-2.765 2.241,-5.005 5.005,-5.005 h 39.438 c 2.765,0 5.006,2.241 5.006,5.005 0,2.764 -2.241,5.005 -5.006,5.005 z"
   style="fill:#333e48" />
	</g><path
     id="path50"
     d="m 285.711,57.439 c 0,-7.508 -6.143,-13.651 -13.651,-13.651 H 52.937 c -7.508,0 -13.65,6.143 -13.65,13.651 v 219.123 c 0,7.508 6.142,13.651 13.65,13.651 H 272.06 c 7.509,0 13.651,-6.143 13.651,-13.651 z"
     style="fill:#009638" /><g
     id="g66">
		<path
   id="path52"
   d="M 44.443,172.006 H 5.006 C 2.241,172.006 0,169.765 0,167.001 c 0,-2.765 2.241,-5.005 5.006,-5.005 h 39.438 c 2.764,0 5.005,2.241 5.005,5.005 -10e-4,2.765 -2.242,5.005 -5.006,5.005 z"
   style="fill:#333e48" />
		<path
   id="path54"
   d="M 44.443,197.792 H 5.006 C 2.241,197.792 0,195.551 0,192.787 c 0,-2.765 2.241,-5.005 5.006,-5.005 h 39.438 c 2.764,0 5.005,2.241 5.005,5.005 -10e-4,2.764 -2.242,5.005 -5.006,5.005 z"
   style="fill:#333e48" />
		<path
   id="path56"
   d="M 44.443,223.578 H 5.006 C 2.241,223.578 0,221.336 0,218.572 c 0,-2.765 2.241,-5.006 5.006,-5.006 h 39.438 c 2.764,0 5.005,2.241 5.005,5.006 -10e-4,2.764 -2.242,5.006 -5.006,5.006 z"
   style="fill:#333e48" />
		<path
   id="path58"
   d="M 44.443,249.363 H 5.006 C 2.241,249.363 0,247.122 0,244.358 c 0,-2.765 2.241,-5.005 5.006,-5.005 h 39.438 c 2.764,0 5.005,2.241 5.005,5.005 -10e-4,2.764 -2.242,5.005 -5.006,5.005 z"
   style="fill:#333e48" />
		<path
   id="path60"
   d="M 44.443,146.221 H 5.006 C 2.241,146.221 0,143.98 0,141.216 c 0,-2.764 2.241,-5.005 5.006,-5.005 h 39.438 c 2.764,0 5.005,2.241 5.005,5.005 -10e-4,2.764 -2.242,5.005 -5.006,5.005 z"
   style="fill:#333e48" />
		<path
   id="path62"
   d="M 44.443,120.436 H 5.006 C 2.241,120.436 0,118.195 0,115.43 c 0,-2.764 2.241,-5.005 5.006,-5.005 h 39.438 c 2.764,0 5.005,2.241 5.005,5.005 -10e-4,2.764 -2.242,5.006 -5.006,5.006 z"
   style="fill:#333e48" />
		<path
   id="path64"
   d="M 44.443,94.65 H 5.006 C 2.241,94.65 0,92.409 0,89.645 0,86.88 2.241,84.64 5.006,84.64 h 39.438 c 2.764,0 5.005,2.241 5.005,5.005 -10e-4,2.764 -2.242,5.005 -5.006,5.005 z"
   style="fill:#333e48" />
	</g><path
     id="path68"
     d="m 302.955,57.439 c 0,-7.508 -6.144,-13.651 -13.651,-13.651 H 70.181 c -7.508,0 -13.651,6.143 -13.651,13.651 v 219.123 c 0,7.508 6.144,13.651 13.651,13.651 h 219.123 c 7.508,0 13.651,-6.143 13.651,-13.651 z"
     style="fill:#00af41" /><path
     id="path70"
     d="m 265.595,90.501 c 0,-10.011 -8.191,-18.202 -18.202,-18.202 H 103.241 c -10.011,0 -18.201,8.19 -18.201,18.202 v 136.442 c 0,10.011 8.19,18.202 18.201,18.202 h 144.151 c 10.011,0 18.202,-8.191 18.202,-18.202 V 90.501 Z"
     style="fill:#c3c6c8" /><rect
     id="rect72"
     height="116.848"
     width="18.400999"
     style="fill:#ffc843"
     y="72.299004"
     x="284.55399" /><g
     id="g80">
</g><g
     id="g82">
</g><g
     id="g84">
</g><g
     id="g86">
</g><g
     id="g88">
</g><g
     id="g90">
</g><g
     id="g92">
</g><g
     id="g94">
</g><g
     id="g96">
</g><g
     id="g98">
</g><g
     id="g100">
</g><g
     id="g102">
</g><g
     id="g104">
</g><g
     id="g106">
</g><g
     id="g108">
</g></g>
</svg>
