<?xml version="1.0" encoding="UTF-8" standalone="no"?>
<svg
   xmlns:dc="http://purl.org/dc/elements/1.1/"
   xmlns:cc="http://creativecommons.org/ns#"
   xmlns:rdf="http://www.w3.org/1999/02/22-rdf-syntax-ns#"
   xmlns:svg="http://www.w3.org/2000/svg"
   xmlns="http://www.w3.org/2000/svg"
   xmlns:sodipodi="http://sodipodi.sourceforge.net/DTD/sodipodi-0.dtd"
   xmlns:inkscape="http://www.inkscape.org/namespaces/inkscape"
   inkscape:version="1.0 (4035a4fb49, 2020-05-01)"
   sodipodi:docname="list_descending.svg"
   xml:space="preserve"
   style="enable-background:new 0 0 512 512;"
   viewBox="0 0 512 512"
   y="0px"
   x="0px"
   id="Layer_1"
   version="1.1"><metadata
   id="metadata57"><rdf:RDF><cc:Work
       rdf:about=""><dc:format>image/svg+xml</dc:format><dc:type
         rdf:resource="http://purl.org/dc/dcmitype/StillImage" /><dc:title></dc:title></cc:Work></rdf:RDF></metadata><defs
   id="defs55" /><sodipodi:namedview
   inkscape:current-layer="g8"
   inkscape:window-maximized="0"
   inkscape:window-y="0"
   inkscape:window-x="-7"
   inkscape:cy="146.85571"
   inkscape:cx="244.61799"
   inkscape:zoom="0.83007813"
   showgrid="false"
   id="namedview53"
   inkscape:window-height="1008"
   inkscape:window-width="958"
   inkscape:pageshadow="2"
   inkscape:pageopacity="0"
   guidetolerance="10"
   gridtolerance="10"
   objecttolerance="10"
   borderopacity="1"
   bordercolor="#666666"
   pagecolor="#ffffff" />
<g
   id="g8">
	<path
   id="path2"
   d="m 41.253,475.36 c 6.99,0 12.466,-5.068 12.466,-11.538 v -90.699 c 0,-6.394 -5.243,-11.402 -11.935,-11.402 -5.888,0 -8.833,3.951 -9.801,5.249 -0.04,0.055 -0.081,0.11 -0.119,0.165 l -10.537,14.907 c -2.047,2.225 -3.865,5.783 -3.865,9.197 0,6.505 5.059,11.812 11.321,11.933 v 60.65 c -0.001,6.578 5.359,11.538 12.47,11.538 z"
   style="fill:#00d7df" />
	<path
   id="path4"
   d="M25.557,254.952c-11.929,8.591-25.449,18.33-25.449,33.39v12.934   c0,6.904,6.313,11.541,12.211,11.541h47.479c6.215,0,11.271-5.475,11.271-12.205c0-6.659-5.057-12.076-11.271-12.076H25.323v-0.197   c0-3.626,8.312-9.491,14.991-14.204c13.286-9.376,29.821-21.043,29.821-41.277c0-19.202-14.882-33.68-34.614-33.68   c-18.894,0-33.143,12.988-33.143,30.211c0,9.994,6.505,13.542,12.075,13.542c7.973,0,12.737-5.935,12.737-11.673   c0-3.568,0.915-7.663,8.063-7.663c9.654,0,9.931,8.554,9.931,9.529C45.186,240.813,35.208,248.001,25.557,254.952z"
   style="fill:#00D7DF;" />
	
<path
   style="fill:#00d7df"
   d="m 35.210441,125.75222 c -9.822,0 -10.585,-5.058 -10.585,-6.608 0,-5.863 -3.886,-11.777 -12.569999,-11.777 -7.621,-0.001 -12.171,4.749 -12.171,12.705 0,14.493 12.424,29.896 35.452999,29.896 22.368,0 35.724,-13.451 35.724,-35.983 v -2.516 c 0,-9.239 -2.955,-16.896993 -8.501,-22.403993 3.799,-5.498 5.856,-12.828 5.856,-21.382 0,-19.927 -11.765,-31.355 -32.282,-31.355 -26.896999,0 -34.005999,19.21 -34.005999,29.368 0,11.825 8.791,13.102 12.570999,13.102 7.361,0 12.305,-4.945 12.305,-12.306 0,-2.83 1.008,-6.081 8.859,-6.081 5.643,0 7.941,0.812 7.941,8.99 0,7.989 -1.715,8.859 -8.469,8.859 -6.487,0 -11.378,5.118 -11.378,11.908 0,6.715 4.95,11.777993 11.514,11.777993 8.919,0 10.713,3.643 10.713,9.521 v 2.516 c 0.002,9.893 -3.856,11.769 -10.974,11.769 z"
   id="path6-7" /></g>
<g
   id="g20">
	<path
   id="path10"
   d="M164.864,86.468h322.917C501.156,86.468,512,75.625,512,62.25s-10.844-24.219-24.219-24.219H164.864   c-13.375,0-24.219,10.844-24.219,24.219S151.489,86.468,164.864,86.468z"
   style="fill:#424EDE;" />
	<path
   id="path12"
   d="M164.864,183.344h322.917c13.375,0,24.219-10.844,24.219-24.219s-10.844-24.219-24.219-24.219   H164.864c-13.375,0-24.219,10.844-24.219,24.219S151.489,183.344,164.864,183.344z"
   style="fill:#424EDE;" />
	<path
   id="path14"
   d="M164.864,280.219h322.917C501.156,280.219,512,269.375,512,256   c0-13.375-10.844-24.219-24.219-24.219H164.864c-13.375,0-24.219,10.844-24.219,24.219   C140.645,269.375,151.489,280.219,164.864,280.219z"
   style="fill:#424EDE;" />
	<path
   id="path16"
   d="M164.864,473.969h322.917c13.375,0,24.219-10.844,24.219-24.219   c0-13.375-10.844-24.219-24.219-24.219H164.864c-13.375,0-24.219,10.844-24.219,24.219   C140.645,463.126,151.489,473.969,164.864,473.969z"
   style="fill:#424EDE;" />
	<path
   id="path18"
   d="M164.864,377.094h322.917c13.375,0,24.219-10.844,24.219-24.219   c0-13.375-10.844-24.219-24.219-24.219H164.864c-13.375,0-24.219,10.844-24.219,24.219   C140.645,366.25,151.489,377.094,164.864,377.094z"
   style="fill:#424EDE;" />
</g>
<g
   id="g22">
</g>
<g
   id="g24">
</g>
<g
   id="g26">
</g>
<g
   id="g28">
</g>
<g
   id="g30">
</g>
<g
   id="g32">
</g>
<g
   id="g34">
</g>
<g
   id="g36">
</g>
<g
   id="g38">
</g>
<g
   id="g40">
</g>
<g
   id="g42">
</g>
<g
   id="g44">
</g>
<g
   id="g46">
</g>
<g
   id="g48">
</g>
<g
   id="g50">
</g>
</svg>
